<?xml version="1.0" encoding="UTF-8"?>
<svg id="Layer_1" data-name="Layer 1" xmlns="http://www.w3.org/2000/svg" version="1.1" viewBox="0 0 1080 350">
  <defs>
    <style>
      .cls-1 {
        fill: #2a9145;
      }

      .cls-1, .cls-2 {
        stroke-width: 0px;
      }

      .cls-2 {
        fill: #fff;
      }
    </style>
  </defs>
  <path class="cls-1" d="M654.01,294.62c-11.47-7.41-18.72-19.86-20.2-33.44l-.83-7.64c-.43-4.01-6.25-4.07-6.77-.07l-1.56,12.11c-2.41,18.71-17.5,33.73-36.32,34.8-.8.05-1.6.07-2.41.07-8.07,0-15.32-2.38-21.26-6.59-.02-.02-.05-.02-.07,0-6.2,4.02-13.57,6.36-21.48,6.36-10.61,0-20.28-4.08-27.47-10.75-.02-.02-.05-.02-.08,0-12.55,7.95-29.27,12.29-45.32,12.29-18.27,0-34.81-5.66-47.65-15.98-.03-.02-.07-.02-.09,0-7.33,9.24-18.65,15.18-31.33,15.18s-24.05-5.96-31.37-15.23c-.02-.03-.06-.03-.09-.01-12.03,9.75-27.16,15.24-43.12,15.24h-.35c-16.24,0-30.99-5.63-42.64-15.17-.03-.02-.07-.02-.09,0-6.92,8.72-17.4,14.5-29.23,15.11-23.03,1.19-42.05-17.98-42.05-41.05v-38.22c0-.06-.06-.09-.1-.06-14.15,9.67-31.72,14.9-50.75,14.9h-10.38s-.07.03-.07.07v21.09c0,11.27-4.45,21.93-12.54,30.01-8.08,8.08-18.74,12.54-30.01,12.54-23.46,0-42.55-19.32-42.55-43.07V110.41c0-24.44,19.03-43.59,43.33-43.59h49.6c33.5,0,60.95,15.51,75.85,40.18.02.03.05.04.08.03,5.29-2.59,11.23-4.05,17.5-4.05,10.34,0,19.78,3.95,26.88,10.42.02.02.05.02.07,0,15.07-8.1,37.47-15.45,69.16-15.45,4.28,0,8.65.14,13.11.41.04,0,.07-.02.07-.06,2.38-20.16,19.83-35.77,40.74-35.23,21.83.57,38.91,19.13,38.91,40.97v10.44s.03.06.06.07c16.8,3.3,30.9,5.02,41.34,5.02,3.88,0,7.15-.24,9.7-.7,1.29-.23,2.58-.35,3.85-.35,6.02,0,11.69,2.55,15.7,6.88.05.05.12,0,.1-.06-1.03-3.63-1.59-7.45-1.59-11.39,0-23.61,19.21-42.82,42.81-42.82,11.1,0,22,4.68,29.91,12.84,7.53,7.77,11.8,17.87,12.15,28.57.34,0,.67-.03,1.01-.03,8.41,0,15.98,2.29,22.22,6.48.02.01.04.02.06,0,9.9-4.61,21.76-7.27,33.33-7.27,16.56,0,31.04,5.11,44.03,15.56.45-.57.88-1.16,1.36-1.7,7.4-8.39,17.94-13.02,29.64-13.04h.14c14.61,0,23.76,6.35,28.86,11.68,7.52,7.85,11.43,18.76,11.04,30.76v62.99l-.02,1.54c-.03,1.96,1.55,3.56,3.51,3.56s3.51-1.57,3.51-3.51v-19.87c0-10.53,3.68-20.62,10.37-28.4,3.08-3.58,6.72-6.52,10.72-8.76.03-.02.04-.04.03-.07-.68-2.88-1.04-5.88-1.04-8.96,0-10.69,4.24-20.64,11.93-28.03,3.8-3.65,8.25-6.47,13.09-8.36.03,0,.04-.03.04-.06v-4.8c0-23.27,17.72-41.5,40.34-41.5h.46c2.32,0,4.59.24,6.82.67.04,0,.08-.02.09-.06,1.17-4.82,2.4-8.22,2.84-9.35,2.91-7.61,9.89-12.9,17.99-13.66.67-.06,1.33-.09,2-.09,7.38,0,14.3,3.81,18.21,10.17.02.04,2.67,3.85,6.12,6,2.7,1.68,5.21,3.46,7.52,5.33.03.02.06.02.08,0,2.64-2.71,5.53-5.16,8.69-7.37,11.42-7.98,25.55-12.02,41.97-12.02,20.03,0,36.96,6.1,38.82,6.79,10.78,4.02,16.45,15.84,12.84,26.76-5.3,16.06-12.61,26.9-24.18,35.73-.04.03-.04.1.01.12,1.96.89,3.87,1.82,5.69,2.85,16.18,9.1,25.46,22.93,25.46,37.94,0,12.76-6.26,24.06-15.82,30.92-.04.02-.04.07,0,.1,12.19,11.22,19.23,26.73,19.23,43.12,0,19.31-8.38,36.71-23.59,48.98-13.83,11.16-32.7,17.31-53.16,17.31-17.27,0-34.34-4.06-48.08-11.43-5.82-3.12-10.84-6.78-14.96-10.82-.03-.03-.08-.02-.1.02-6.76,12.9-19.87,21.47-35.26,21.47-10.78,0-20.75-4.1-28.07-11.53-1.68-1.7-3.17-3.55-4.5-5.51-.02-.03-.06-.04-.1-.02-14.65,11.51-34.46,17.57-57.68,17.57s-40.94-5.56-54.85-16.53c-.03-.02-.07-.02-.09.02-7.23,10.09-18.85,17.8-32.05,16.52-9.61-.93-17.69-6.09-17.69-6.09"/>
  <path class="cls-2" d="M148.75,88.22h-49.59c-12.54,0-21.93,9.67-21.93,22.19v146.71c0,12.01,9.65,21.67,21.14,21.67s21.14-9.66,21.14-21.14v-42.56h31.85c38.1,0,63.95-25.32,63.95-62.9s-27.41-63.96-66.56-63.96M146.4,178.02h-26.89v-51.94h27.15c13.84,0,25.06,11.74,25.06,26.36,0,13.84-11.22,25.58-25.32,25.58"/>
  <path class="cls-2" d="M257.82,218.12v-2.99c-.08,1.89,0,2.99,0,2.99"/>
  <path class="cls-2" d="M316.58,178.02c-26.98,0-47.79,22.07-47.79,50.5s20.63,51.24,47.79,51.05c27.15,0,47.97-22.07,47.97-50.69s-20.82-50.86-47.97-50.86M316.58,254.96c-11.58,0-20.1-10.86-20.1-26.08s8.52-25.51,20.1-25.51,20.09,10.67,20.09,25.71-8.33,25.89-20.09,25.89"/>
  <path class="cls-2" d="M267.28,188.54s.03-.03.08-.09c-.03.03-.05.06-.06.09h-.02Z"/>
  <path class="cls-2" d="M502.22,245.77c-2.6,0-4.83.75-11.34,4.46-6.15,3.35-12.65,5.2-18.79,5.2-7.81,0-15.24-3.53-18.79-8.18-1.68-2.23-3.16-5.76-4.83-10.23h55.04c9.11,0,12.46-3.16,12.46-11.71,0-26.78-22.12-49.09-48.54-49.09-28.08,0-49.65,22.87-49.65,52.82s21.57,51.32,52.44,51.32c22.69,0,44.26-11.34,44.26-23.05,0-6.52-5.58-11.53-12.28-11.53M468.01,199.09c10.41,0,16.92,6.7,19.52,19.71h-39.61c2.78-12.83,9.86-19.71,20.09-19.71"/>
  <path class="cls-2" d="M543.11,146.54c-10.23,0-18.8,8.34-18.8,18.57v95.39c0,10,8.57,18.32,18.8,18.32s18.32-8.32,18.32-18.55v-95.16c0-10.23-8.34-18.57-18.32-18.57M543.11,92.54c-11.89,0-21.41,9.52-21.41,21.42s9.52,20.94,21.41,20.94,20.69-9.28,20.69-20.94-9.51-21.42-20.69-21.42"/>
  <path class="cls-2" d="M676.42,147.48c-9.91-9.39-20.53-14.35-34.64-14.35-11.48,0-24.01,3.65-31.58,9.65-1.56,1.04-3.39,2.87-6.26,5.75-3.31-13.64-13.58-14.61-17.75-14.61-11.22,0-16.68,9.39-16.68,20.62v104.17c0,11.22,5.46,20.36,16.42,20.36s20.36-9.14,20.36-20.1v-68.4c0-12.79,10.45-23.49,23.23-23.49s23.5,10.7,23.5,23.49v68.65c0,10.97,7.46,20.1,18.68,20.1s18.56-9.13,18.56-20.36v-75.19c.07-14.15-4.18-27.15-13.84-36.28"/>
  <path class="cls-2" d="M803.83,178.96c-10.91,0-18.57,9.81-18.57,20.71v18.29c0,16.44-8.35,25.85-23.23,25.85s-26.57-9.41-26.57-25.85v-63.38c.41-9.58-4.16-20.67-18.56-20.64-11.72.02-18.56,8.75-18.56,20.07v67.61c0,36.54,20.15,57.69,60.35,57.69s63.7-21.14,63.7-57.69v-22.58c0-11.22-7.69-20.09-18.56-20.09"/>
  <path class="cls-2" d="M897.82,153.74c0,8.44-5.85,15.55-13.88,17.49-1.4.35-2.89.53-4.41.53h-11.99l.26,86.67c0,11.24-7.8,20.37-18.77,20.37s-18.56-8.78-18.38-20.37v-86.92h-6.78c-10.45,0-18.54-8.35-18.54-18.01s8.09-17.76,18.54-17.76h6.52v-23.49c0-10.97,7.72-20.1,18.94-20.1h.46c9.91,0,17.4,9.51,17.97,18.88.03.4.04.81.04,1.23l-.26,23.49h12.27c.92,0,1.8.06,2.68.19,8.66,1.31,15.33,8.81,15.33,17.82"/>
  <path class="cls-2" d="M1002.78,234.68c0,26.36-23.23,44.89-55.34,44.89-28.72,0-54.83-14.1-54.83-29.75,0-9.39,7.58-17.5,16.97-17.5,3.39,0,7.83,1.57,12.8,3.66l7.31,4.18c6.79,3.66,14.35,5.75,19.31,5.75,8.09,0,14.35-4.7,14.35-10.71,0-4.69-5.22-8.88-15.4-12.53l-10.7-4.17c-12.54-4.45-21.93-8.88-27.42-12.8-6.2-4.55-10.58-12.18-12.15-20.73-.41-2.27-.63-4.6-.63-6.94,0-19.59,12.77-35.05,32.37-41.55h.01c6.53-2.16,13.83-3.34,21.65-3.34,25.59,0,48.3,12.52,48.3,27.41,0,8.88-7.05,16.44-15.93,16.44-2.6,0-6.26-.77-8.86-2.09l-7.05-3.13c-6.79-2.87-14.62-4.69-19.06-4.69-7.05,0-12.27,3.65-12.27,8.61,0,5.75,3.65,7.84,21.66,14.88,14.09,5.48,20.1,8.35,27.15,12.52,11.22,7.32,17.76,19.06,17.76,31.6"/>
  <path class="cls-2" d="M267.28,188.54s.02-.03.08-.09c-.02.03-.05.05-.06.09h-.02Z"/>
  <path class="cls-2" d="M268.14,187.39c-.24.32-.47.61-.69.93.13-.19.35-.5.69-.93"/>
  <path class="cls-2" d="M902.93,140.14c27.24-50.84,71.37-57.95,71.37-57.95-33.67.15-60.31,31.55-60.31,31.55,9.11-62.79,79.47-36.54,79.47-36.54-7.69,23.28-19.57,32.36-65.86,46.04-16.66,4.93-26.03,23.22-26.03,23.22,0,0-.17-17.17-16.9-31.87-16.73-14.71-5.16-44.94-5.16-44.94,0,0,4.83,7.84,13.04,12.95,8.2,5.1,25.26,18.23,14.38,42.73,0,0-3.31-27.64-17.95-35.93,0,0,11.35,11.14,14.27,32.48,1.79,13.13-.32,18.27-.32,18.27"/>
  <path class="cls-2" d="M392.04,279.57h-1.74c-9.77,0-17.69-7.92-17.69-17.69V102.16c0-9.77,7.92-17.69,17.69-17.69h1.74c9.77,0,17.69,7.92,17.69,17.69v159.72c0,9.77-7.92,17.69-17.69,17.69"/>
  <path class="cls-2" d="M374.81,122.61v-.03c-.07-.01-.14-.02-.21-.03,0,0,0,0,0,0h0c-81.22-13.63-110.99,20.24-113.84,24.13v-3.74c0-10.25-8.31-18.56-18.56-18.56s-18.56,8.31-18.56,18.56v118.07c0,10.25,8.31,18.56,18.56,18.56s18.56-8.31,18.56-18.56v-34.29c.72-19.02,10.41-86.53,112.54-74.67v-.1c.1.03.19.06.29.1,61.02,20.24,112.5-12.13,112.5-12.13-33.13,6.04-106.68-15.92-111.26-17.3"/>
  <path class="cls-2" d="M260.74,231.61v-4.8c-.11,3.02,0,4.8,0,4.8"/>
</svg>